<?xml version="1.0" standalone="no"?>
<!DOCTYPE svg PUBLIC "-//W3C//DTD SVG 20010904//EN"
 "http://www.w3.org/TR/2001/REC-SVG-20010904/DTD/svg10.dtd">
<svg version="1.0" xmlns="http://www.w3.org/2000/svg"
 width="399.000000pt" height="409.000000pt" viewBox="0 0 399.000000 409.000000"
 preserveAspectRatio="xMidYMid meet">

<g transform="translate(0.000000,409.000000) scale(0.100000,-0.100000)"
fill="#000000" stroke="none">
<path d="M28 3944 c-2 -82 -2 -625 0 -1206 l5 -1058 46 42 c25 23 258 252 517
509 409 405 476 469 509 475 52 9 85 -8 85 -45 0 -32 -9 -41 -57 -56 -21 -7
-146 -120 -365 -330 -183 -176 -371 -356 -418 -400 -47 -44 -138 -131 -203
-195 l-118 -115 2 -162 c0 -90 4 -163 9 -163 4 0 13 7 20 15 6 8 17 13 23 12
7 -1 11 3 10 9 -2 12 461 459 612 591 288 251 504 373 712 403 87 12 383 13
383 1 0 -5 -26 -24 -58 -42 -102 -58 -285 -186 -357 -251 -39 -35 -347 -341
-685 -682 -569 -572 -656 -653 -608 -563 7 14 124 141 260 283 137 143 255
270 265 283 15 23 15 24 0 18 -25 -9 -64 35 -72 82 -4 22 -13 45 -20 51 -16
13 -30 66 -26 95 2 11 12 30 24 42 11 13 16 23 10 23 -6 0 -122 -113 -257
-251 l-246 -251 0 -422 c0 -233 3 -426 7 -429 3 -4 47 33 97 82 114 111 330
309 559 514 l177 159 269 -11 c902 -37 1257 23 1557 263 184 148 288 296 367
522 54 156 71 270 72 479 0 348 -77 603 -244 805 -149 180 -346 295 -611 355
-62 15 -156 19 -550 24 l-475 7 -75 28 c-198 75 -330 230 -380 446 -11 47 -22
102 -25 123 l-6 37 -49 0 -50 0 0 -530 c0 -464 -2 -530 -15 -530 -13 0 -15
-20 -15 -123 l0 -123 -108 -109 c-270 -275 -348 -361 -358 -395 -14 -46 -22
218 -30 1031 -3 340 -10 632 -14 650 -7 31 -8 29 -9 -21 -1 -48 -3 -53 -14
-34 -6 11 -22 36 -34 55 -13 19 -23 50 -23 69 0 19 -4 41 -9 49 -5 8 -10 -48
-13 -135z m1585 -772 c50 -22 132 -107 154 -160 25 -56 22 -175 -5 -235 -34
-75 -77 -123 -140 -154 -48 -24 -69 -28 -137 -28 -97 0 -160 29 -224 101 -51
59 -55 78 -10 54 14 -8 19 -7 19 1 0 6 22 -8 48 -33 60 -56 106 -72 189 -65
76 6 129 37 170 99 23 34 28 55 32 116 6 122 -25 185 -116 238 -35 21 -57 26
-106 26 -77 0 -111 -13 -160 -60 -39 -37 -58 -67 -72 -110 -6 -22 -5 -23 30
-20 30 3 42 11 64 43 37 56 106 89 166 81 117 -18 172 -167 98 -265 -68 -89
-218 -77 -266 22 l-19 37 -200 0 -200 0 -192 -187 c-106 -104 -235 -226 -287
-273 l-94 -85 61 67 c50 54 61 71 57 92 -3 15 -1 26 6 26 6 0 11 7 11 16 0 10
-6 14 -15 10 -8 -3 -15 -3 -15 0 0 10 101 112 259 262 l154 147 161 5 160 5 6
30 c21 99 112 186 225 216 44 12 141 2 188 -19z m1192 -274 c-40 -154 -125
-289 -275 -439 -105 -104 -231 -193 -514 -360 -96 -57 -163 -103 -169 -116 -8
-18 -19 -23 -47 -23 -22 0 -43 7 -50 15 -24 29 4 59 112 120 459 260 629 376
746 508 120 136 187 278 200 421 l7 81 3 -72 c2 -43 -4 -97 -13 -135z m-1166
152 c44 -45 60 -90 29 -82 -10 2 -26 17 -34 32 -9 15 -34 38 -55 51 -32 20
-36 25 -22 31 32 12 43 8 82 -32z m1291 -444 c0 -2 -8 -10 -17 -17 -16 -13
-17 -12 -4 4 13 16 21 21 21 13z m-48 -63 c-84 -117 -275 -299 -582 -557 -91
-77 -179 -154 -197 -173 -18 -18 -41 -33 -52 -33 -18 0 -51 24 -51 36 0 21 36
55 138 131 195 144 421 325 526 419 55 49 119 106 144 127 24 20 41 37 37 37
-5 0 0 9 10 20 10 11 24 20 32 20 11 0 10 -7 -5 -27z m-11 -341 c-37 -47 -230
-251 -480 -508 l-196 -201 -55 -6 c-30 -4 -76 -7 -101 -7 -45 0 -45 0 -67 -53
-32 -77 -77 -125 -146 -158 -151 -72 -340 -3 -409 149 -33 72 -31 179 6 254
92 187 330 235 481 97 53 -48 76 -89 96 -168 l11 -44 74 5 74 5 138 129 c75
71 232 221 347 334 140 137 219 206 234 207 22 2 22 1 -7 -35z m-1791 -892 c0
-5 -5 -10 -11 -10 -5 0 -7 5 -4 10 3 6 8 10 11 10 2 0 4 -4 4 -10z"/>
<path d="M1595 1756 c-90 -41 -135 -114 -135 -218 0 -79 32 -151 86 -197 l39
-33 -34 5 -35 4 23 -18 c45 -37 159 -59 219 -43 43 12 21 24 -45 24 -38 0 -74
4 -81 9 -7 4 12 6 43 3 96 -8 193 45 236 130 15 29 26 38 44 38 47 0 25 17
-31 24 l-56 6 -42 -44 c-86 -92 -213 -80 -266 24 -58 114 19 245 142 243 74
-1 124 -46 152 -135 4 -13 16 -18 45 -18 40 0 40 0 35 33 -4 17 -21 55 -39 83
-64 98 -190 132 -300 80z m181 -14 c-3 -5 6 -15 19 -22 14 -7 25 -20 25 -28 0
-13 -2 -13 -17 0 -10 9 -38 22 -62 29 -41 12 -43 14 -20 20 35 10 61 10 55 1z"/>
<path d="M3781 2714 c0 -11 3 -14 6 -6 3 7 2 16 -1 19 -3 4 -6 -2 -5 -13z"/>
<path d="M3792 2675 c0 -29 25 -124 27 -100 0 11 -6 43 -13 70 -8 28 -14 41
-14 30z"/>
<path d="M180 2480 c0 -77 3 -140 8 -140 4 0 35 31 70 69 58 65 76 91 52 76
-5 -3 -10 3 -10 13 0 11 -6 31 -13 44 -15 29 -47 63 -47 51 0 -4 -5 0 -11 10
-5 9 -19 17 -29 17 -19 0 -20 -8 -20 -140z"/>
<path d="M3824 2510 c34 -235 36 -533 5 -752 -11 -81 -27 -167 -34 -190 l-14
-43 5 46 c5 41 3 47 -15 52 -19 4 -24 -6 -56 -110 -46 -147 -196 -466 -211
-450 -3 2 11 38 29 78 157 339 206 536 212 854 2 118 1 158 -4 116 -5 -35 -14
-67 -22 -72 -20 -12 -53 -11 -67 3 -9 9 -17 9 -35 -1 -13 -7 -27 -11 -33 -10
-28 5 -64 -2 -62 -13 2 -8 -6 -12 -20 -10 -13 1 -36 -6 -50 -17 -15 -10 -33
-16 -39 -14 -7 3 -13 -2 -13 -10 0 -8 -7 -18 -16 -21 -8 -3 -13 -9 -10 -14 2
-4 -5 -9 -16 -9 -12 -1 -33 -13 -47 -27 -16 -15 -44 -27 -75 -32 l-49 -7 6 42
c3 22 1 41 -4 41 -5 0 -9 -8 -9 -18 0 -31 -59 -203 -100 -289 -83 -178 -223
-353 -369 -464 -88 -66 -305 -172 -416 -203 -180 -50 -276 -60 -670 -72 -115
-3 -212 -8 -214 -10 -2 -2 52 -4 120 -4 117 -1 122 -2 96 -16 -20 -11 -27 -21
-24 -34 3 -10 -1 -21 -9 -24 -8 -3 -11 0 -7 10 8 21 -7 17 -29 -8 -11 -12 -17
-30 -15 -40 6 -22 -11 -24 -19 -3 -9 22 -24 18 -24 -5 0 -12 -7 -20 -16 -20
-13 0 -14 -3 -4 -15 10 -12 9 -16 -3 -21 -21 -8 -37 3 -37 24 -1 16 -2 16 -14
0 -7 -10 -27 -21 -44 -24 -17 -4 -34 -14 -37 -23 -3 -10 -17 -18 -37 -19 -17
-2 -37 -7 -43 -12 -7 -6 -24 -11 -40 -12 -15 -2 -30 -8 -32 -15 -3 -7 -13 -13
-22 -13 -17 -1 -72 -29 -57 -30 17 0 -16 -28 -42 -35 -15 -4 -35 -14 -45 -22
-9 -9 -20 -13 -23 -10 -8 8 -64 -21 -64 -33 0 -5 -16 -12 -35 -16 -20 -3 -34
-9 -31 -11 9 -9 -19 -30 -57 -42 -20 -7 -37 -17 -37 -22 0 -5 -7 -9 -15 -9
-21 0 -65 -48 -65 -71 0 -11 -8 -23 -17 -26 -10 -4 -21 -11 -25 -17 -4 -6 -13
-11 -20 -11 -8 0 -12 -9 -10 -23 3 -18 -2 -22 -22 -22 -14 0 -26 -4 -26 -9 0
-5 6 -9 13 -8 6 0 129 -1 272 -3 l260 -3 -160 -7 c-88 -4 -259 -11 -380 -15
-121 -4 -211 -11 -200 -15 35 -13 -1 -20 -130 -23 -66 -1 274 -4 755 -5 874
-2 1132 5 1325 33 201 30 425 102 590 190 277 148 529 391 677 654 223 397
307 895 242 1426 -8 65 -17 122 -21 125 -3 3 -3 -15 1 -40z m-47 -1012 c-3 -8
-6 -5 -6 6 -1 11 2 17 5 13 3 -3 4 -12 1 -19z m-2237 -768 c0 -5 -10 -10 -22
-10 -19 0 -20 2 -8 10 19 13 30 13 30 0z m380 -40 c0 -5 -2 -10 -4 -10 -3 0
-8 5 -11 10 -3 6 -1 10 4 10 6 0 11 -4 11 -10z m-90 -85 c0 -8 -2 -15 -4 -15
-2 0 -6 7 -10 15 -3 8 -1 15 4 15 6 0 10 -7 10 -15z m-770 -125 c0 -5 -7 -10
-15 -10 -8 0 -15 5 -15 10 0 6 7 10 15 10 8 0 15 -4 15 -10z m468 -18 c2 -12
-1 -22 -6 -22 -15 0 -34 28 -27 40 10 17 30 6 33 -18z m-573 -22 c3 -5 1 -10
-4 -10 -6 0 -11 5 -11 10 0 6 2 10 4 10 3 0 8 -4 11 -10z m-5 -39 c0 -6 -4
-13 -10 -16 -5 -3 -10 1 -10 9 0 9 5 16 10 16 6 0 10 -4 10 -9z"/>
<path d="M169 1313 l-24 -28 28 24 c15 14 27 26 27 28 0 8 -8 1 -31 -24z"/>
<path d="M0 1199 c0 -5 5 -7 10 -4 5 3 10 8 10 11 0 2 -4 4 -10 4 -5 0 -10 -5
-10 -11z"/>
</g>
</svg>
