<svg xmlns="http://www.w3.org/2000/svg" viewBox="0 0 64 64" role="img" aria-label="dAicon">
  <defs>
    <linearGradient id="bg" x1="0" y1="0" x2="1" y2="1">
      <stop offset="0%" stop-color="#4f7cff"/>
      <stop offset="100%" stop-color="#7b3bff"/>
    </linearGradient>
  </defs>
  <rect width="64" height="64" rx="14" fill="url(#bg)"/>
  <path d="M14 46V18h11.2c9.6 0 15.8 5.4 15.8 14 0 8.7-6.2 14-15.8 14H14Zm8-6.6h2.4c5 0 8.2-2.7 8.2-7.4s-3.2-7.4-8.2-7.4H22v14.8Z" fill="#fff"/>
  <path d="M50.2 46l-1.8-4.7h-10L36.7 46h-8.2l10.6-28h8.6l10.6 28h-8.1Zm-9.5-10.7h5.4l-2.7-7.6-2.7 7.6Z" fill="#fff"/>
</svg>
